<svg xmlns="http://www.w3.org/2000/svg" width="32" height="32" viewBox="0 0 32 32"><title>nav</title><g id="Layer_1" data-name="Layer 1"><path d="M21.51,5.81v7.1h2.37L27,9H30.2a.79.79,0,0,1,.79.79V22.39a.8.8,0,0,1-.79.79H27l-3.16-3.95H21.51v7.1a1.57,1.57,0,0,1-1.58,1.58H2.57A1.57,1.57,0,0,1,1,26.33V5.81A1.58,1.58,0,0,1,2.57,4.23H19.93A1.58,1.58,0,0,1,21.51,5.81Z" style="fill:none;stroke:#fff;stroke-miterlimit:10"/><line x1="27.04" y1="8.97" x2="27.04" y2="23.18" style="fill:none;stroke:#fff;stroke-miterlimit:10"/><path d="M7.3,11.23v9.68a.79.79,0,0,0,1.23.66l8-4.84a.79.79,0,0,0,0-1.32l-8-4.84A.79.79,0,0,0,7.3,11.23Z" style="fill:none;stroke:#fff;stroke-miterlimit:10"/></g></svg>